<svg width="800" height="450" viewBox="0 0 800 450" fill="none" xmlns="http://www.w3.org/2000/svg">
<path fill-rule="evenodd" clip-rule="evenodd" d="M331.379 85.0336C330.924 85.0336 330.469 85.0358 330.015 85.0401C329.634 85.0437 329.323 84.7379 329.319 84.3571C329.315 83.9762 329.621 83.6645 330.002 83.6609C330.461 83.6565 330.92 83.6543 331.379 83.6543H332.747C333.127 83.6543 333.436 83.9631 333.436 84.344C333.436 84.7248 333.127 85.0336 332.747 85.0336H331.379ZM337.526 84.344C337.526 83.9631 337.834 83.6543 338.215 83.6543H340.95C341.331 83.6543 341.639 83.9631 341.639 84.344C341.639 84.7248 341.331 85.0336 340.95 85.0336H338.215C337.834 85.0336 337.526 84.7248 337.526 84.344ZM345.729 84.344C345.729 83.9631 346.038 83.6543 346.419 83.6543H349.153C349.534 83.6543 349.843 83.9631 349.843 84.344C349.843 84.7248 349.534 85.0336 349.153 85.0336H346.419C346.038 85.0336 345.729 84.7248 345.729 84.344ZM353.932 84.344C353.932 83.9631 354.241 83.6543 354.622 83.6543H357.356C357.737 83.6543 358.046 83.9631 358.046 84.344C358.046 84.7248 357.737 85.0336 357.356 85.0336H354.622C354.241 85.0336 353.932 84.7248 353.932 84.344ZM362.136 84.344C362.136 83.9631 362.444 83.6543 362.825 83.6543H365.56C365.94 83.6543 366.249 83.9631 366.249 84.344C366.249 84.7248 365.94 85.0336 365.56 85.0336H362.825C362.444 85.0336 362.136 84.7248 362.136 84.344ZM370.339 84.344C370.339 83.9631 370.648 83.6543 371.028 83.6543H373.763C374.144 83.6543 374.453 83.9631 374.453 84.344C374.453 84.7248 374.144 85.0336 373.763 85.0336H371.028C370.648 85.0336 370.339 84.7248 370.339 84.344ZM378.542 84.344C378.542 83.9631 378.851 83.6543 379.232 83.6543H381.966C382.347 83.6543 382.656 83.9631 382.656 84.344C382.656 84.7248 382.347 85.0336 381.966 85.0336H379.232C378.851 85.0336 378.542 84.7248 378.542 84.344ZM386.745 84.344C386.745 83.9631 387.054 83.6543 387.435 83.6543H390.169C390.55 83.6543 390.859 83.9631 390.859 84.344C390.859 84.7248 390.55 85.0336 390.169 85.0336H387.435C387.054 85.0336 386.745 84.7248 386.745 84.344ZM394.949 84.344C394.949 83.9631 395.257 83.6543 395.638 83.6543H398.373C398.754 83.6543 399.062 83.9631 399.062 84.344C399.062 84.7248 398.754 85.0336 398.373 85.0336H395.638C395.257 85.0336 394.949 84.7248 394.949 84.344ZM403.152 84.344C403.152 83.9631 403.461 83.6543 403.842 83.6543H406.576C406.957 83.6543 407.266 83.9631 407.266 84.344C407.266 84.7248 406.957 85.0336 406.576 85.0336H403.842C403.461 85.0336 403.152 84.7248 403.152 84.344ZM411.355 84.344C411.355 83.9631 411.664 83.6543 412.045 83.6543H414.779C415.16 83.6543 415.469 83.9631 415.469 84.344C415.469 84.7248 415.16 85.0336 414.779 85.0336H412.045C411.664 85.0336 411.355 84.7248 411.355 84.344ZM419.558 84.344C419.558 83.9631 419.867 83.6543 420.248 83.6543H422.982C423.363 83.6543 423.672 83.9631 423.672 84.344C423.672 84.7248 423.363 85.0336 422.982 85.0336H420.248C419.867 85.0336 419.558 84.7248 419.558 84.344ZM427.762 84.344C427.762 83.9631 428.07 83.6543 428.451 83.6543H431.186C431.567 83.6543 431.875 83.9631 431.875 84.344C431.875 84.7248 431.567 85.0336 431.186 85.0336H428.451C428.07 85.0336 427.762 84.7248 427.762 84.344ZM435.965 84.344C435.965 83.9631 436.274 83.6543 436.655 83.6543H439.389C439.77 83.6543 440.079 83.9631 440.079 84.344C440.079 84.7248 439.77 85.0336 439.389 85.0336H436.655C436.274 85.0336 435.965 84.7248 435.965 84.344ZM444.168 84.344C444.168 83.9631 444.477 83.6543 444.858 83.6543H447.592C447.973 83.6543 448.282 83.9631 448.282 84.344C448.282 84.7248 447.973 85.0336 447.592 85.0336H444.858C444.477 85.0336 444.168 84.7248 444.168 84.344ZM452.371 84.344C452.371 83.9631 452.68 83.6543 453.061 83.6543H455.796C456.176 83.6543 456.485 83.9631 456.485 84.344C456.485 84.7248 456.176 85.0336 455.796 85.0336H453.061C452.68 85.0336 452.371 84.7248 452.371 84.344ZM460.575 84.344C460.575 83.9631 460.884 83.6543 461.264 83.6543H463.999C464.38 83.6543 464.689 83.9631 464.689 84.344C464.689 84.7248 464.38 85.0336 463.999 85.0336H461.264C460.884 85.0336 460.575 84.7248 460.575 84.344ZM468.778 84.344C468.778 83.9631 469.087 83.6543 469.468 83.6543H472.202C472.583 83.6543 472.892 83.9631 472.892 84.344C472.892 84.7248 472.583 85.0336 472.202 85.0336H469.468C469.087 85.0336 468.778 84.7248 468.778 84.344ZM476.981 84.344C476.981 83.9631 477.29 83.6543 477.671 83.6543H480.405C480.786 83.6543 481.095 83.9631 481.095 84.344C481.095 84.7248 480.786 85.0336 480.405 85.0336H477.671C477.29 85.0336 476.981 84.7248 476.981 84.344ZM485.185 84.344C485.185 83.9631 485.493 83.6543 485.874 83.6543H487.241C487.701 83.6543 488.16 83.6565 488.619 83.6609C488.999 83.6645 489.305 83.9762 489.302 84.3571C489.298 84.7379 488.986 85.0437 488.605 85.0401C488.151 85.0358 487.697 85.0336 487.241 85.0336H485.874C485.493 85.0336 485.185 84.7248 485.185 84.344ZM325.247 84.4735C325.265 84.854 324.971 85.1771 324.591 85.1953C323.683 85.2386 322.777 85.2906 321.874 85.3512C321.494 85.3767 321.165 85.0892 321.14 84.7092C321.114 84.3292 321.402 84.0004 321.782 83.975C322.694 83.9138 323.608 83.8613 324.525 83.8176C324.905 83.7994 325.229 84.0931 325.247 84.4735ZM493.374 84.4735C493.392 84.0931 493.715 83.7994 494.096 83.8176C495.012 83.8613 495.927 83.9138 496.839 83.975C497.219 84.0004 497.506 84.3292 497.481 84.7092C497.455 85.0892 497.127 85.3767 496.747 85.3512C495.843 85.2906 494.938 85.2386 494.03 85.1953C493.649 85.1771 493.356 84.854 493.374 84.4735ZM317.082 85.0597C317.122 85.4385 316.848 85.7781 316.469 85.8182C315.566 85.9138 314.665 86.0181 313.766 86.1308C313.388 86.1782 313.044 85.9103 312.996 85.5324C312.949 85.1545 313.217 84.8097 313.595 84.7622C314.502 84.6484 315.412 84.5431 316.324 84.4465C316.703 84.4064 317.042 84.681 317.082 85.0597ZM501.538 85.0597C501.578 84.681 501.918 84.4064 502.297 84.4465C503.209 84.5431 504.119 84.6484 505.026 84.7622C505.404 84.8097 505.672 85.1545 505.625 85.5324C505.577 85.9103 505.232 86.1782 504.854 86.1308C503.956 86.0181 503.055 85.9138 502.152 85.8182C501.773 85.7781 501.498 85.4385 501.538 85.0597ZM308.963 86.1182C309.025 86.494 308.771 86.849 308.395 86.9111C307.5 87.0588 306.608 87.2151 305.719 87.3798C305.345 87.4492 304.985 87.2018 304.916 86.8273C304.846 86.4528 305.094 86.0929 305.468 86.0236C306.366 85.8573 307.267 85.6994 308.17 85.5502C308.546 85.4881 308.901 85.7424 308.963 86.1182ZM509.657 86.1183C509.72 85.7425 510.074 85.4881 510.45 85.5502C511.354 85.6994 512.255 85.8573 513.153 86.0236C513.527 86.0929 513.774 86.4528 513.705 86.8273C513.636 87.2018 513.276 87.4492 512.901 87.3798C512.012 87.2151 511.12 87.0589 510.226 86.9111C509.85 86.849 509.595 86.494 509.657 86.1183ZM300.922 87.6479C301.006 88.0194 300.772 88.3886 300.401 88.4726C299.517 88.6721 298.637 88.88 297.76 89.0962C297.39 89.1873 297.017 88.9614 296.926 88.5916C296.834 88.2218 297.06 87.8481 297.43 87.7569C298.316 87.5386 299.205 87.3287 300.097 87.1271C300.468 87.0432 300.838 87.2764 300.922 87.6479ZM517.699 87.6479C517.783 87.2764 518.152 87.0432 518.524 87.1272C519.416 87.3287 520.305 87.5386 521.191 87.7569C521.56 87.8481 521.786 88.2218 521.695 88.5916C521.604 88.9614 521.23 89.1873 520.86 89.0962C519.984 88.88 519.103 88.6721 518.22 88.4726C517.848 88.3887 517.615 88.0194 517.699 87.6479ZM292.985 89.645C293.09 90.011 292.879 90.3932 292.513 90.4988C291.644 90.7494 290.778 91.0083 289.916 91.2752C289.552 91.3879 289.166 91.1843 289.053 90.8204C288.941 90.4566 289.144 90.0703 289.508 89.9576C290.379 89.688 291.253 89.4266 292.131 89.1735C292.497 89.0679 292.879 89.2791 292.985 89.645ZM525.636 89.6451C525.742 89.2791 526.124 89.068 526.49 89.1735C527.368 89.4266 528.242 89.6881 529.113 89.9577C529.476 90.0703 529.68 90.4566 529.567 90.8204C529.455 91.1843 529.068 91.3879 528.705 91.2752C527.842 91.0083 526.977 90.7495 526.108 90.4988C525.742 90.3933 525.53 90.011 525.636 89.6451ZM285.18 92.1034C285.306 92.4626 285.118 92.8566 284.759 92.9834C283.905 93.2848 283.055 93.5944 282.208 93.9119C281.852 94.0457 281.454 93.865 281.321 93.5084C281.187 93.1518 281.367 92.7543 281.724 92.6205C282.579 92.2998 283.437 91.9872 284.3 91.6827C284.659 91.5559 285.053 91.7443 285.18 92.1034ZM533.441 92.1035C533.568 91.7443 533.962 91.5559 534.321 91.6827C535.184 91.9872 536.042 92.2998 536.897 92.6205C537.253 92.7543 537.434 93.1518 537.3 93.5084C537.166 93.8651 536.769 94.0457 536.412 93.9119C535.566 93.5944 534.716 93.2849 533.862 92.9834C533.503 92.8566 533.314 92.4626 533.441 92.1035ZM277.532 95.0146C277.68 95.3658 277.515 95.7701 277.164 95.9177C276.328 96.269 275.497 96.6283 274.669 96.9953C274.321 97.1497 273.914 96.9927 273.759 96.6445C273.605 96.2963 273.762 95.8889 274.11 95.7344C274.946 95.3638 275.785 95.001 276.629 94.6462C276.981 94.4985 277.385 94.6635 277.532 95.0146ZM541.088 95.0147C541.236 94.6635 541.64 94.4986 541.991 94.6462C542.835 95.001 543.675 95.3638 544.511 95.7345C544.859 95.8889 545.016 96.2963 544.862 96.6445C544.707 96.9927 544.3 97.1497 543.952 96.9953C543.124 96.6283 542.293 96.269 541.457 95.9177C541.106 95.7701 540.941 95.3658 541.088 95.0147ZM270.066 98.3697C270.234 98.7116 270.093 99.1248 269.751 99.2927C268.937 99.6921 268.128 100.099 267.324 100.514C266.986 100.688 266.57 100.555 266.395 100.217C266.221 99.8782 266.354 99.4623 266.692 99.2878C267.504 98.869 268.321 98.458 269.143 98.0546C269.485 97.8868 269.898 98.0278 270.066 98.3697ZM548.555 98.3697C548.723 98.0278 549.136 97.8868 549.478 98.0547C550.299 98.458 551.116 98.8691 551.929 99.2878C552.267 99.4623 552.4 99.8782 552.226 100.217C552.051 100.555 551.635 100.688 551.297 100.514C550.492 100.099 549.683 99.6921 548.87 99.2928C548.528 99.1249 548.387 98.7116 548.555 98.3697ZM262.808 102.155C262.995 102.487 262.879 102.907 262.547 103.095C261.759 103.541 260.976 103.994 260.197 104.454C259.87 104.648 259.447 104.54 259.253 104.212C259.059 103.884 259.167 103.461 259.495 103.267C260.281 102.802 261.072 102.345 261.868 101.894C262.2 101.707 262.62 101.824 262.808 102.155ZM555.813 102.155C556 101.824 556.421 101.707 556.753 101.894C557.549 102.345 558.34 102.802 559.126 103.267C559.454 103.461 559.562 103.884 559.368 104.212C559.174 104.54 558.751 104.648 558.423 104.454C557.645 103.994 556.862 103.541 556.074 103.095C555.742 102.907 555.625 102.487 555.813 102.155ZM255.784 106.356C255.99 106.676 255.898 107.103 255.578 107.31C254.818 107.8 254.062 108.298 253.312 108.803C252.996 109.016 252.568 108.932 252.355 108.616C252.142 108.3 252.226 107.871 252.542 107.659C253.3 107.149 254.062 106.646 254.83 106.151C255.15 105.944 255.577 106.036 255.784 106.356ZM562.837 106.356C563.044 106.036 563.47 105.944 563.79 106.151C564.558 106.646 565.321 107.149 566.079 107.659C566.395 107.871 566.479 108.3 566.266 108.616C566.053 108.932 565.625 109.016 565.309 108.803C564.558 108.298 563.803 107.8 563.043 107.31C562.723 107.103 562.631 106.676 562.837 106.356ZM249.016 110.958C249.241 111.266 249.173 111.697 248.866 111.922C248.135 112.456 247.409 112.997 246.689 113.545C246.386 113.775 245.954 113.717 245.723 113.414C245.492 113.11 245.551 112.678 245.854 112.447C246.581 111.894 247.314 111.348 248.052 110.808C248.36 110.584 248.791 110.651 249.016 110.958ZM569.605 110.958C569.83 110.651 570.261 110.584 570.569 110.808C571.307 111.348 572.039 111.894 572.767 112.447C573.07 112.678 573.128 113.11 572.898 113.414C572.667 113.717 572.234 113.776 571.931 113.545C571.211 112.997 570.486 112.456 569.755 111.922C569.447 111.697 569.38 111.266 569.605 110.958ZM242.526 115.945C242.768 116.239 242.726 116.673 242.432 116.915C241.733 117.491 241.04 118.073 240.353 118.662C240.063 118.91 239.628 118.876 239.38 118.587C239.132 118.298 239.166 117.862 239.455 117.615C240.15 117.02 240.85 116.432 241.555 115.851C241.849 115.609 242.284 115.651 242.526 115.945ZM576.095 115.945C576.337 115.651 576.771 115.609 577.065 115.851C577.771 116.432 578.471 117.02 579.165 117.615C579.455 117.862 579.488 118.298 579.241 118.587C578.993 118.876 578.557 118.91 578.268 118.662C577.581 118.073 576.887 117.491 576.189 116.916C575.895 116.673 575.853 116.239 576.095 115.945ZM236.335 121.299C236.594 121.578 236.577 122.015 236.297 122.274C235.633 122.888 234.975 123.51 234.323 124.137C234.048 124.401 233.612 124.393 233.348 124.118C233.084 123.844 233.092 123.407 233.366 123.143C234.025 122.51 234.69 121.882 235.36 121.261C235.64 121.003 236.076 121.019 236.335 121.299ZM582.286 121.299C582.544 121.019 582.981 121.003 583.26 121.261C583.931 121.882 584.596 122.51 585.254 123.143C585.529 123.407 585.537 123.844 585.273 124.119C585.009 124.393 584.572 124.401 584.298 124.137C583.646 123.51 582.987 122.888 582.323 122.274C582.044 122.015 582.027 121.578 582.286 121.299ZM230.464 127.002C230.739 127.266 230.747 127.703 230.483 127.977C229.855 128.629 229.234 129.288 228.619 129.952C228.361 130.231 227.924 130.248 227.645 129.989C227.365 129.731 227.348 129.294 227.607 129.015C228.228 128.344 228.855 127.679 229.489 127.021C229.753 126.746 230.19 126.738 230.464 127.002ZM588.156 127.002C588.431 126.738 588.868 126.746 589.132 127.021C589.765 127.679 590.393 128.344 591.014 129.015C591.272 129.294 591.256 129.731 590.976 129.989C590.697 130.248 590.26 130.231 590.001 129.952C589.387 129.288 588.765 128.629 588.138 127.977C587.874 127.703 587.882 127.266 588.156 127.002ZM224.933 133.034C225.222 133.282 225.256 133.718 225.008 134.007C224.419 134.694 223.837 135.388 223.261 136.086C223.019 136.38 222.584 136.422 222.29 136.18C221.996 135.938 221.954 135.504 222.197 135.21C222.778 134.504 223.366 133.804 223.96 133.11C224.208 132.82 224.644 132.787 224.933 133.034ZM593.688 133.035C593.977 132.787 594.413 132.82 594.66 133.11C595.255 133.804 595.843 134.504 596.424 135.21C596.666 135.504 596.624 135.938 596.33 136.18C596.036 136.423 595.602 136.38 595.36 136.086C594.784 135.388 594.202 134.694 593.613 134.007C593.365 133.718 593.399 133.282 593.688 133.035ZM219.759 139.377C220.062 139.608 220.121 140.04 219.891 140.344C219.343 141.064 218.802 141.789 218.268 142.52C218.043 142.828 217.611 142.895 217.304 142.67C216.996 142.445 216.929 142.014 217.154 141.706C217.693 140.968 218.24 140.236 218.793 139.508C219.023 139.205 219.456 139.147 219.759 139.377ZM598.861 139.377C599.165 139.147 599.597 139.205 599.828 139.509C600.381 140.236 600.927 140.968 601.467 141.706C601.691 142.014 601.624 142.445 601.317 142.67C601.009 142.895 600.578 142.828 600.353 142.52C599.819 141.789 599.278 141.064 598.73 140.344C598.5 140.041 598.558 139.608 598.861 139.377ZM214.962 146.009C215.278 146.222 215.361 146.65 215.149 146.966C214.644 147.717 214.146 148.472 213.655 149.232C213.449 149.552 213.022 149.644 212.702 149.438C212.382 149.231 212.29 148.805 212.496 148.485C212.992 147.717 213.495 146.954 214.004 146.196C214.217 145.88 214.646 145.796 214.962 146.009ZM603.659 146.009C603.975 145.796 604.404 145.88 604.616 146.196C605.126 146.954 605.629 147.717 606.124 148.485C606.331 148.805 606.239 149.231 605.919 149.438C605.599 149.644 605.172 149.552 604.965 149.232C604.475 148.472 603.977 147.717 603.472 146.966C603.259 146.65 603.343 146.222 603.659 146.009ZM210.558 152.907C210.886 153.101 210.994 153.524 210.8 153.852C210.34 154.63 209.886 155.413 209.441 156.201C209.253 156.533 208.832 156.65 208.501 156.462C208.169 156.275 208.053 155.854 208.24 155.522C208.69 154.726 209.148 153.935 209.613 153.149C209.807 152.821 210.23 152.713 210.558 152.907ZM608.063 152.907C608.391 152.713 608.814 152.822 609.008 153.149C609.473 153.935 609.93 154.727 610.381 155.522C610.568 155.854 610.451 156.275 610.12 156.462C609.788 156.65 609.368 156.533 609.18 156.201C608.734 155.413 608.281 154.63 607.821 153.852C607.627 153.524 607.735 153.101 608.063 152.907ZM206.562 160.049C206.901 160.224 207.034 160.64 206.86 160.978C206.445 161.783 206.038 162.592 205.638 163.405C205.471 163.747 205.057 163.888 204.715 163.72C204.374 163.552 204.232 163.139 204.4 162.797C204.804 161.976 205.215 161.159 205.633 160.346C205.808 160.008 206.224 159.875 206.562 160.049ZM612.058 160.049C612.397 159.875 612.813 160.008 612.987 160.346C613.406 161.159 613.817 161.976 614.22 162.797C614.388 163.139 614.247 163.552 613.905 163.72C613.563 163.888 613.15 163.747 612.982 163.405C612.583 162.592 612.176 161.783 611.761 160.978C611.587 160.64 611.72 160.224 612.058 160.049ZM202.99 167.413C203.338 167.568 203.495 167.975 203.341 168.323C202.974 169.151 202.615 169.982 202.263 170.818C202.116 171.169 201.711 171.334 201.36 171.187C201.009 171.039 200.844 170.635 200.992 170.284C201.347 169.44 201.71 168.6 202.08 167.764C202.235 167.416 202.642 167.259 202.99 167.413ZM615.631 167.413C615.979 167.259 616.386 167.416 616.541 167.764C616.911 168.6 617.274 169.44 617.629 170.284C617.776 170.635 617.611 171.039 617.26 171.187C616.909 171.334 616.505 171.169 616.357 170.818C616.006 169.982 615.647 169.151 615.28 168.323C615.125 167.975 615.282 167.568 615.631 167.413ZM199.854 174.975C200.211 175.109 200.391 175.506 200.258 175.863C199.94 176.709 199.631 177.559 199.329 178.413C199.202 178.772 198.808 178.961 198.449 178.834C198.09 178.707 197.902 178.313 198.028 177.954C198.333 177.091 198.646 176.233 198.966 175.378C199.1 175.022 199.498 174.841 199.854 174.975ZM618.767 174.975C619.123 174.841 619.521 175.022 619.655 175.378C619.975 176.233 620.288 177.092 620.592 177.954C620.719 178.313 620.531 178.707 620.172 178.834C619.812 178.961 619.418 178.772 619.292 178.413C618.99 177.559 618.681 176.709 618.363 175.863C618.229 175.506 618.41 175.109 618.767 174.975ZM197.166 182.708C197.53 182.82 197.734 183.207 197.621 183.57C197.354 184.433 197.095 185.298 196.845 186.167C196.739 186.533 196.357 186.744 195.991 186.639C195.625 186.533 195.414 186.151 195.519 185.785C195.772 184.907 196.034 184.033 196.303 183.162C196.416 182.799 196.802 182.595 197.166 182.708ZM621.455 182.708C621.818 182.595 622.205 182.799 622.317 183.162C622.587 184.033 622.848 184.907 623.102 185.785C623.207 186.151 622.996 186.533 622.63 186.639C622.264 186.745 621.882 186.533 621.776 186.167C621.526 185.298 621.267 184.433 621 183.57C620.887 183.207 621.091 182.82 621.455 182.708ZM194.937 190.58C195.307 190.671 195.533 191.045 195.442 191.415C195.226 192.291 195.018 193.172 194.818 194.055C194.734 194.427 194.365 194.66 193.994 194.576C193.622 194.492 193.389 194.123 193.473 193.751C193.674 192.859 193.884 191.97 194.103 191.084C194.194 190.715 194.567 190.489 194.937 190.58ZM623.683 190.58C624.053 190.489 624.427 190.715 624.518 191.084C624.736 191.97 624.946 192.859 625.148 193.751C625.232 194.123 624.999 194.492 624.627 194.576C624.256 194.66 623.886 194.427 623.802 194.055C623.603 193.172 623.395 192.292 623.179 191.415C623.088 191.045 623.314 190.671 623.683 190.58ZM193.173 198.57C193.548 198.639 193.795 198.999 193.726 199.374C193.561 200.263 193.405 201.155 193.257 202.049C193.195 202.425 192.84 202.68 192.464 202.618C192.088 202.555 191.834 202.201 191.896 201.825C192.045 200.921 192.203 200.02 192.369 199.122C192.439 198.748 192.798 198.501 193.173 198.57ZM625.448 198.57C625.822 198.501 626.182 198.748 626.251 199.122C626.418 200.02 626.576 200.921 626.725 201.825C626.787 202.201 626.533 202.555 626.157 202.618C625.781 202.68 625.426 202.425 625.364 202.05C625.216 201.155 625.06 200.263 624.895 199.374C624.826 198.999 625.073 198.639 625.448 198.57ZM191.878 206.65C192.256 206.698 192.524 207.043 192.477 207.421C192.364 208.319 192.26 209.22 192.164 210.123C192.124 210.502 191.784 210.777 191.405 210.737C191.027 210.696 190.752 210.357 190.792 209.978C190.889 209.066 190.994 208.156 191.108 207.249C191.155 206.871 191.5 206.603 191.878 206.65ZM626.743 206.651C627.12 206.603 627.465 206.871 627.513 207.249C627.627 208.156 627.732 209.066 627.828 209.978C627.869 210.357 627.594 210.697 627.215 210.737C626.836 210.777 626.497 210.502 626.457 210.123C626.361 209.22 626.257 208.319 626.144 207.421C626.097 207.043 626.365 206.698 626.743 206.651ZM191.055 214.794C191.435 214.82 191.722 215.148 191.697 215.528C191.636 216.432 191.584 217.337 191.541 218.245C191.523 218.626 191.2 218.919 190.819 218.901C190.439 218.883 190.145 218.56 190.163 218.179C190.207 217.263 190.26 216.348 190.321 215.436C190.346 215.056 190.675 214.769 191.055 214.794ZM627.566 214.794C627.946 214.769 628.275 215.056 628.3 215.436C628.361 216.348 628.414 217.263 628.457 218.179C628.476 218.56 628.182 218.883 627.801 218.901C627.421 218.919 627.098 218.626 627.08 218.245C627.036 217.337 626.984 216.432 626.924 215.528C626.898 215.148 627.186 214.82 627.566 214.794ZM190.703 222.973C191.084 222.977 191.389 223.289 191.386 223.67C191.381 224.124 191.379 224.578 191.379 225.034C191.379 225.489 191.381 225.943 191.386 226.398C191.389 226.778 191.084 227.09 190.703 227.094C190.322 227.097 190.01 226.792 190.007 226.411C190.002 225.952 190 225.493 190 225.034C190 224.574 190.002 224.115 190.007 223.656C190.01 223.276 190.322 222.97 190.703 222.973ZM627.918 222.973C628.299 222.97 628.611 223.276 628.614 223.656C628.618 224.115 628.621 224.574 628.621 225.034C628.621 225.493 628.618 225.952 628.614 226.411C628.611 226.792 628.299 227.098 627.918 227.094C627.537 227.09 627.231 226.779 627.235 226.398C627.239 225.943 627.241 225.489 627.241 225.034C627.241 224.578 627.239 224.124 627.235 223.67C627.231 223.289 627.537 222.977 627.918 222.973ZM190.819 231.166C191.2 231.148 191.523 231.442 191.541 231.822C191.584 232.73 191.636 233.636 191.697 234.539C191.722 234.919 191.435 235.248 191.055 235.273C190.675 235.299 190.346 235.011 190.321 234.631C190.26 233.719 190.207 232.805 190.163 231.888C190.145 231.507 190.439 231.184 190.819 231.166ZM627.801 231.166C628.182 231.184 628.476 231.507 628.457 231.888C628.414 232.805 628.361 233.719 628.3 234.631C628.275 235.011 627.946 235.299 627.566 235.273C627.186 235.248 626.898 234.919 626.924 234.539C626.984 233.636 627.036 232.73 627.08 231.822C627.098 231.442 627.421 231.148 627.801 231.166ZM191.405 239.331C191.784 239.29 192.124 239.565 192.164 239.944C192.26 240.847 192.364 241.748 192.477 242.647C192.524 243.024 192.256 243.369 191.878 243.417C191.5 243.464 191.155 243.196 191.108 242.818C190.994 241.911 190.889 241.001 190.792 240.089C190.752 239.71 191.027 239.371 191.405 239.331ZM627.215 239.331C627.594 239.371 627.869 239.71 627.828 240.089C627.732 241.001 627.627 241.911 627.513 242.818C627.465 243.196 627.12 243.464 626.743 243.417C626.365 243.369 626.097 243.024 626.144 242.647C626.257 241.748 626.361 240.847 626.457 239.944C626.497 239.565 626.836 239.291 627.215 239.331ZM192.464 247.45C192.84 247.388 193.195 247.642 193.257 248.018C193.405 248.913 193.561 249.805 193.725 250.694C193.795 251.068 193.548 251.428 193.173 251.497C192.798 251.567 192.439 251.319 192.369 250.945C192.203 250.047 192.045 249.146 191.896 248.242C191.834 247.867 192.088 247.512 192.464 247.45ZM626.157 247.45C626.533 247.512 626.787 247.867 626.725 248.242C626.576 249.146 626.418 250.047 626.251 250.945C626.182 251.319 625.822 251.567 625.448 251.497C625.073 251.428 624.826 251.068 624.895 250.694C625.06 249.805 625.216 248.913 625.364 248.018C625.426 247.642 625.781 247.388 626.157 247.45ZM193.994 255.491C194.365 255.407 194.734 255.641 194.818 256.012C195.018 256.895 195.226 257.776 195.442 258.653C195.533 259.022 195.307 259.396 194.937 259.487C194.567 259.578 194.194 259.353 194.103 258.983C193.884 258.097 193.674 257.208 193.473 256.316C193.389 255.944 193.622 255.575 193.994 255.491ZM624.627 255.491C624.999 255.575 625.232 255.944 625.148 256.316C624.946 257.208 624.736 258.097 624.518 258.983C624.427 259.353 624.053 259.578 623.683 259.487C623.314 259.396 623.088 259.022 623.179 258.653C623.395 257.776 623.603 256.895 623.802 256.012C623.886 255.641 624.256 255.407 624.627 255.491ZM195.991 263.428C196.357 263.323 196.739 263.534 196.844 263.9C197.095 264.769 197.354 265.635 197.621 266.497C197.734 266.861 197.53 267.247 197.166 267.36C196.802 267.472 196.416 267.269 196.303 266.905C196.034 266.034 195.772 265.16 195.519 264.282C195.414 263.916 195.625 263.534 195.991 263.428ZM622.63 263.428C622.996 263.534 623.207 263.916 623.101 264.282C622.848 265.16 622.587 266.034 622.317 266.905C622.205 267.269 621.818 267.472 621.455 267.36C621.091 267.247 620.887 266.861 621 266.497C621.267 265.635 621.526 264.769 621.776 263.9C621.882 263.534 622.264 263.323 622.63 263.428ZM198.449 271.233C198.808 271.107 199.202 271.295 199.329 271.654C199.631 272.508 199.94 273.358 200.258 274.204C200.391 274.561 200.211 274.959 199.854 275.092C199.498 275.226 199.1 275.046 198.966 274.689C198.646 273.834 198.333 272.976 198.028 272.113C197.902 271.754 198.09 271.36 198.449 271.233ZM620.172 271.233C620.531 271.36 620.719 271.754 620.592 272.113C620.288 272.976 619.975 273.834 619.655 274.689C619.521 275.046 619.123 275.226 618.767 275.092C618.41 274.959 618.229 274.561 618.363 274.204C618.681 273.358 618.99 272.508 619.292 271.654C619.418 271.295 619.812 271.107 620.172 271.233ZM201.36 278.88C201.711 278.733 202.116 278.898 202.263 279.249C202.615 280.085 202.974 280.916 203.341 281.744C203.495 282.092 203.338 282.499 202.99 282.654C202.642 282.808 202.235 282.651 202.08 282.303C201.709 281.467 201.347 280.628 200.992 279.783C200.844 279.432 201.009 279.028 201.36 278.88ZM617.26 278.881C617.611 279.028 617.776 279.432 617.629 279.784C617.274 280.628 616.911 281.467 616.541 282.303C616.386 282.651 615.979 282.808 615.63 282.654C615.282 282.499 615.125 282.092 615.28 281.744C615.647 280.916 616.006 280.085 616.357 279.249C616.505 278.898 616.909 278.733 617.26 278.881ZM204.715 286.347C205.057 286.179 205.471 286.32 205.638 286.662C206.038 287.476 206.445 288.284 206.859 289.089C207.034 289.427 206.901 289.843 206.562 290.018C206.224 290.192 205.808 290.059 205.633 289.721C205.215 288.908 204.804 288.092 204.4 287.27C204.232 286.928 204.374 286.515 204.715 286.347ZM613.905 286.347C614.247 286.515 614.388 286.928 614.22 287.27C613.817 288.092 613.406 288.909 612.987 289.721C612.813 290.059 612.397 290.192 612.058 290.018C611.72 289.843 611.587 289.427 611.761 289.089C612.176 288.285 612.583 287.476 612.982 286.662C613.15 286.32 613.563 286.179 613.905 286.347ZM208.501 293.605C208.832 293.417 209.253 293.534 209.441 293.866C209.886 294.654 210.34 295.437 210.8 296.216C210.994 296.543 210.886 296.966 210.558 297.16C210.23 297.354 209.807 297.246 209.613 296.918C209.148 296.132 208.69 295.341 208.24 294.545C208.053 294.213 208.169 293.793 208.501 293.605ZM610.12 293.605C610.451 293.793 610.568 294.213 610.381 294.545C609.93 295.341 609.473 296.132 609.008 296.918C608.814 297.246 608.391 297.354 608.063 297.16C607.735 296.966 607.627 296.543 607.82 296.216C608.281 295.437 608.734 294.654 609.18 293.866C609.368 293.534 609.788 293.418 610.12 293.605ZM212.702 300.629C213.022 300.423 213.449 300.515 213.655 300.835C214.146 301.595 214.644 302.351 215.149 303.101C215.361 303.417 215.278 303.845 214.962 304.058C214.646 304.271 214.217 304.187 214.004 303.871C213.495 303.113 212.992 302.351 212.496 301.583C212.29 301.263 212.382 300.836 212.702 300.629ZM605.919 300.629C606.239 300.836 606.331 301.263 606.124 301.583C605.629 302.351 605.126 303.113 604.616 303.871C604.404 304.187 603.975 304.271 603.659 304.058C603.343 303.845 603.259 303.417 603.472 303.101C603.977 302.351 604.475 301.595 604.965 300.835C605.172 300.515 605.599 300.423 605.919 300.629ZM217.304 307.397C217.611 307.172 218.043 307.24 218.268 307.547C218.802 308.278 219.343 309.003 219.891 309.724C220.121 310.027 220.062 310.459 219.759 310.69C219.456 310.921 219.023 310.862 218.793 310.559C218.24 309.832 217.693 309.099 217.154 308.361C216.929 308.053 216.996 307.622 217.304 307.397ZM601.317 307.397C601.624 307.622 601.691 308.053 601.467 308.361C600.927 309.099 600.381 309.832 599.828 310.559C599.597 310.862 599.164 310.921 598.861 310.69C598.558 310.459 598.499 310.027 598.73 309.724C599.278 309.004 599.819 308.278 600.353 307.547C600.578 307.24 601.009 307.172 601.317 307.397ZM222.29 313.887C222.584 313.645 223.019 313.687 223.261 313.981C223.837 314.68 224.419 315.373 225.008 316.06C225.256 316.35 225.222 316.785 224.933 317.033C224.644 317.28 224.208 317.247 223.96 316.958C223.366 316.263 222.778 315.563 222.197 314.858C221.954 314.564 221.996 314.129 222.29 313.887ZM596.33 313.887C596.624 314.129 596.666 314.564 596.424 314.858C595.843 315.563 595.255 316.263 594.66 316.958C594.413 317.247 593.977 317.28 593.688 317.033C593.399 316.785 593.365 316.35 593.613 316.06C594.202 315.373 594.784 314.68 595.359 313.981C595.602 313.687 596.036 313.645 596.33 313.887ZM227.645 320.078C227.924 319.819 228.36 319.836 228.619 320.115C229.234 320.78 229.855 321.438 230.483 322.09C230.747 322.365 230.739 322.801 230.464 323.065C230.19 323.329 229.753 323.321 229.489 323.047C228.855 322.388 228.228 321.723 227.607 321.052C227.348 320.773 227.365 320.337 227.645 320.078ZM590.976 320.078C591.256 320.337 591.272 320.773 591.014 321.052C590.393 321.723 589.765 322.388 589.132 323.047C588.868 323.321 588.431 323.329 588.156 323.065C587.882 322.801 587.874 322.365 588.138 322.09C588.765 321.438 589.387 320.78 590.001 320.115C590.26 319.836 590.697 319.819 590.976 320.078ZM233.348 325.949C233.612 325.674 234.048 325.666 234.323 325.93C234.975 326.557 235.633 327.179 236.297 327.794C236.577 328.052 236.594 328.489 236.335 328.768C236.076 329.048 235.64 329.065 235.36 328.806C234.69 328.185 234.025 327.557 233.366 326.924C233.092 326.66 233.083 326.223 233.348 325.949ZM585.273 325.949C585.537 326.223 585.529 326.66 585.254 326.924C584.596 327.558 583.931 328.185 583.26 328.806C582.981 329.065 582.544 329.048 582.286 328.768C582.027 328.489 582.044 328.052 582.323 327.794C582.987 327.179 583.646 326.557 584.298 325.93C584.572 325.666 585.009 325.674 585.273 325.949ZM239.38 331.48C239.628 331.191 240.063 331.157 240.353 331.405C241.04 331.994 241.733 332.576 242.432 333.152C242.726 333.394 242.768 333.828 242.526 334.122C242.284 334.416 241.849 334.459 241.555 334.216C240.85 333.635 240.15 333.047 239.455 332.452C239.166 332.205 239.132 331.769 239.38 331.48ZM579.24 331.48C579.488 331.769 579.455 332.205 579.165 332.453C578.471 333.047 577.771 333.635 577.065 334.216C576.771 334.459 576.337 334.417 576.095 334.122C575.852 333.829 575.895 333.394 576.189 333.152C576.887 332.576 577.581 331.994 578.268 331.405C578.557 331.157 578.993 331.191 579.24 331.48ZM245.723 336.654C245.954 336.35 246.386 336.292 246.689 336.522C247.409 337.07 248.135 337.611 248.866 338.145C249.173 338.37 249.24 338.801 249.016 339.109C248.791 339.416 248.36 339.484 248.052 339.259C247.314 338.72 246.581 338.173 245.854 337.62C245.551 337.389 245.492 336.957 245.723 336.654ZM572.898 336.654C573.128 336.957 573.07 337.389 572.767 337.62C572.039 338.173 571.307 338.72 570.569 339.259C570.261 339.484 569.83 339.417 569.605 339.109C569.38 338.801 569.447 338.37 569.755 338.145C570.486 337.611 571.211 337.07 571.931 336.522C572.234 336.292 572.667 336.35 572.898 336.654ZM252.355 341.451C252.567 341.135 252.996 341.051 253.312 341.264C254.062 341.769 254.818 342.267 255.578 342.758C255.898 342.964 255.99 343.391 255.784 343.711C255.577 344.031 255.15 344.123 254.83 343.917C254.062 343.421 253.3 342.918 252.542 342.408C252.226 342.196 252.142 341.767 252.355 341.451ZM566.266 341.451C566.478 341.767 566.395 342.196 566.079 342.408C565.321 342.918 564.558 343.421 563.79 343.917C563.47 344.123 563.044 344.031 562.837 343.711C562.631 343.391 562.723 342.964 563.043 342.758C563.803 342.267 564.558 341.769 565.309 341.264C565.625 341.052 566.053 341.135 566.266 341.451ZM259.253 345.855C259.447 345.527 259.869 345.419 260.197 345.613C260.976 346.073 261.759 346.526 262.547 346.972C262.879 347.16 262.995 347.581 262.808 347.912C262.62 348.244 262.2 348.36 261.868 348.173C261.072 347.723 260.281 347.265 259.495 346.8C259.167 346.606 259.059 346.183 259.253 345.855ZM559.368 345.855C559.562 346.183 559.453 346.606 559.126 346.8C558.34 347.265 557.548 347.723 556.753 348.173C556.421 348.36 556 348.244 555.813 347.912C555.625 347.581 555.742 347.16 556.074 346.972C556.862 346.527 557.645 346.073 558.423 345.613C558.751 345.419 559.174 345.527 559.368 345.855ZM266.395 349.85C266.57 349.512 266.986 349.379 267.324 349.553C268.128 349.968 268.937 350.375 269.751 350.774C270.093 350.942 270.234 351.356 270.066 351.697C269.898 352.039 269.485 352.18 269.143 352.013C268.321 351.609 267.504 351.198 266.692 350.779C266.354 350.605 266.221 350.189 266.395 349.85ZM552.226 349.85C552.4 350.189 552.267 350.605 551.929 350.779C551.116 351.198 550.299 351.609 549.478 352.013C549.136 352.18 548.723 352.039 548.555 351.697C548.387 351.356 548.528 350.942 548.87 350.774C549.683 350.375 550.492 349.968 551.297 349.553C551.635 349.379 552.051 349.512 552.226 349.85ZM273.759 353.423C273.914 353.074 274.321 352.917 274.669 353.072C275.497 353.439 276.328 353.798 277.164 354.15C277.515 354.297 277.68 354.701 277.532 355.053C277.385 355.404 276.98 355.569 276.629 355.421C275.785 355.066 274.945 354.703 274.11 354.333C273.762 354.178 273.605 353.771 273.759 353.423ZM544.862 353.423C545.016 353.771 544.859 354.178 544.511 354.333C543.675 354.703 542.835 355.066 541.991 355.421C541.64 355.569 541.236 355.404 541.088 355.053C540.941 354.701 541.106 354.297 541.457 354.15C542.292 353.798 543.124 353.439 543.952 353.072C544.3 352.917 544.707 353.075 544.862 353.423ZM281.32 356.559C281.454 356.202 281.852 356.022 282.208 356.155C283.055 356.473 283.905 356.782 284.759 357.084C285.118 357.211 285.306 357.605 285.18 357.964C285.053 358.323 284.659 358.511 284.3 358.384C283.437 358.08 282.579 357.767 281.724 357.447C281.367 357.313 281.187 356.915 281.32 356.559ZM537.3 356.559C537.434 356.915 537.253 357.313 536.897 357.447C536.042 357.767 535.184 358.08 534.321 358.384C533.962 358.511 533.568 358.323 533.441 357.964C533.314 357.605 533.503 357.211 533.862 357.084C534.716 356.782 535.566 356.473 536.412 356.155C536.769 356.022 537.166 356.202 537.3 356.559ZM289.053 359.247C289.166 358.883 289.552 358.679 289.916 358.792C290.778 359.059 291.644 359.318 292.513 359.568C292.879 359.674 293.09 360.056 292.985 360.422C292.879 360.788 292.497 360.999 292.131 360.894C291.253 360.641 290.379 360.379 289.508 360.11C289.144 359.997 288.941 359.611 289.053 359.247ZM529.567 359.247C529.68 359.611 529.476 359.997 529.113 360.11C528.242 360.379 527.368 360.641 526.49 360.894C526.124 360.999 525.742 360.788 525.636 360.422C525.53 360.056 525.742 359.674 526.108 359.568C526.977 359.318 527.842 359.059 528.705 358.792C529.068 358.679 529.455 358.883 529.567 359.247ZM296.926 361.476C297.017 361.106 297.39 360.88 297.76 360.971C298.637 361.187 299.517 361.395 300.401 361.595C300.772 361.679 301.005 362.048 300.922 362.419C300.838 362.791 300.468 363.024 300.097 362.94C299.205 362.739 298.316 362.529 297.43 362.31C297.06 362.219 296.834 361.845 296.926 361.476ZM521.695 361.476C521.786 361.845 521.56 362.219 521.191 362.31C520.305 362.529 519.416 362.739 518.524 362.94C518.152 363.024 517.783 362.791 517.699 362.419C517.615 362.048 517.848 361.679 518.22 361.595C519.103 361.395 519.983 361.187 520.86 360.971C521.23 360.88 521.604 361.106 521.695 361.476ZM304.916 363.24C304.985 362.865 305.345 362.618 305.719 362.687C306.608 362.852 307.5 363.008 308.395 363.156C308.771 363.218 309.025 363.573 308.963 363.949C308.901 364.325 308.546 364.579 308.17 364.517C307.267 364.368 306.366 364.21 305.468 364.044C305.094 363.974 304.846 363.614 304.916 363.24ZM513.705 363.24C513.774 363.614 513.527 363.974 513.153 364.044C512.255 364.21 511.354 364.368 510.45 364.517C510.074 364.579 509.719 364.325 509.657 363.949C509.595 363.573 509.85 363.218 510.225 363.156C511.12 363.008 512.012 362.852 512.901 362.687C513.276 362.618 513.636 362.865 513.705 363.24ZM312.996 364.535C313.044 364.157 313.388 363.889 313.766 363.936C314.665 364.049 315.566 364.153 316.469 364.249C316.848 364.289 317.122 364.629 317.082 365.007C317.042 365.386 316.703 365.661 316.324 365.621C315.411 365.524 314.502 365.419 313.595 365.305C313.217 365.258 312.949 364.913 312.996 364.535ZM505.624 364.535C505.672 364.913 505.404 365.258 505.026 365.305C504.119 365.419 503.209 365.524 502.297 365.621C501.918 365.661 501.578 365.386 501.538 365.007C501.498 364.629 501.773 364.289 502.152 364.249C503.055 364.153 503.956 364.049 504.854 363.936C505.232 363.889 505.577 364.157 505.624 364.535ZM321.14 365.358C321.165 364.978 321.494 364.691 321.874 364.716C322.777 364.777 323.683 364.829 324.591 364.872C324.971 364.89 325.265 365.213 325.247 365.594C325.229 365.974 324.905 366.268 324.525 366.25C323.608 366.206 322.694 366.153 321.782 366.092C321.402 366.067 321.114 365.738 321.14 365.358ZM497.481 365.358C497.506 365.738 497.219 366.067 496.839 366.092C495.927 366.153 495.012 366.206 494.096 366.25C493.715 366.268 493.392 365.974 493.374 365.594C493.356 365.213 493.649 364.89 494.03 364.872C494.938 364.829 495.843 364.777 496.747 364.716C497.127 364.691 497.455 364.978 497.481 365.358ZM329.319 365.71C329.323 365.329 329.634 365.023 330.015 365.027C330.469 365.031 330.924 365.034 331.379 365.034H332.746C333.127 365.034 333.436 365.342 333.436 365.723C333.436 366.104 333.127 366.413 332.746 366.413H331.379C330.92 366.413 330.461 366.411 330.002 366.406C329.621 366.403 329.315 366.091 329.319 365.71ZM489.302 365.71C489.305 366.091 488.999 366.403 488.619 366.406C488.16 366.411 487.701 366.413 487.241 366.413H485.874C485.493 366.413 485.185 366.104 485.185 365.723C485.185 365.342 485.493 365.034 485.874 365.034H487.241C487.697 365.034 488.151 365.031 488.605 365.027C488.986 365.023 489.298 365.329 489.302 365.71ZM337.526 365.723C337.526 365.342 337.834 365.034 338.215 365.034H340.95C341.331 365.034 341.639 365.342 341.639 365.723C341.639 366.104 341.331 366.413 340.95 366.413H338.215C337.834 366.413 337.526 366.104 337.526 365.723ZM345.729 365.723C345.729 365.342 346.038 365.034 346.419 365.034H349.153C349.534 365.034 349.843 365.342 349.843 365.723C349.843 366.104 349.534 366.413 349.153 366.413H346.419C346.038 366.413 345.729 366.104 345.729 365.723ZM353.932 365.723C353.932 365.342 354.241 365.034 354.622 365.034H357.356C357.737 365.034 358.046 365.342 358.046 365.723C358.046 366.104 357.737 366.413 357.356 366.413H354.622C354.241 366.413 353.932 366.104 353.932 365.723ZM362.135 365.723C362.135 365.342 362.444 365.034 362.825 365.034H365.56C365.94 365.034 366.249 365.342 366.249 365.723C366.249 366.104 365.94 366.413 365.56 366.413H362.825C362.444 366.413 362.135 366.104 362.135 365.723ZM370.339 365.723C370.339 365.342 370.648 365.034 371.028 365.034H373.763C374.144 365.034 374.452 365.342 374.452 365.723C374.452 366.104 374.144 366.413 373.763 366.413H371.028C370.648 366.413 370.339 366.104 370.339 365.723ZM378.542 365.723C378.542 365.342 378.851 365.034 379.232 365.034H381.966C382.347 365.034 382.656 365.342 382.656 365.723C382.656 366.104 382.347 366.413 381.966 366.413H379.232C378.851 366.413 378.542 366.104 378.542 365.723ZM386.745 365.723C386.745 365.342 387.054 365.034 387.435 365.034H390.169C390.55 365.034 390.859 365.342 390.859 365.723C390.859 366.104 390.55 366.413 390.169 366.413H387.435C387.054 366.413 386.745 366.104 386.745 365.723ZM394.949 365.723C394.949 365.342 395.257 365.034 395.638 365.034H398.373C398.754 365.034 399.062 365.342 399.062 365.723C399.062 366.104 398.754 366.413 398.373 366.413H395.638C395.257 366.413 394.949 366.104 394.949 365.723ZM403.152 365.723C403.152 365.342 403.461 365.034 403.842 365.034H406.576C406.957 365.034 407.266 365.342 407.266 365.723C407.266 366.104 406.957 366.413 406.576 366.413H403.842C403.461 366.413 403.152 366.104 403.152 365.723ZM411.355 365.723C411.355 365.342 411.664 365.034 412.045 365.034H414.779C415.16 365.034 415.469 365.342 415.469 365.723C415.469 366.104 415.16 366.413 414.779 366.413H412.045C411.664 366.413 411.355 366.104 411.355 365.723ZM419.558 365.723C419.558 365.342 419.867 365.034 420.248 365.034H422.982C423.363 365.034 423.672 365.342 423.672 365.723C423.672 366.104 423.363 366.413 422.982 366.413H420.248C419.867 366.413 419.558 366.104 419.558 365.723ZM427.762 365.723C427.762 365.342 428.07 365.034 428.451 365.034H431.186C431.567 365.034 431.875 365.342 431.875 365.723C431.875 366.104 431.567 366.413 431.186 366.413H428.451C428.07 366.413 427.762 366.104 427.762 365.723ZM435.965 365.723C435.965 365.342 436.274 365.034 436.655 365.034H439.389C439.77 365.034 440.079 365.342 440.079 365.723C440.079 366.104 439.77 366.413 439.389 366.413H436.655C436.274 366.413 435.965 366.104 435.965 365.723ZM444.168 365.723C444.168 365.342 444.477 365.034 444.858 365.034H447.592C447.973 365.034 448.282 365.342 448.282 365.723C448.282 366.104 447.973 366.413 447.592 366.413H444.858C444.477 366.413 444.168 366.104 444.168 365.723ZM452.371 365.723C452.371 365.342 452.68 365.034 453.061 365.034H455.796C456.176 365.034 456.485 365.342 456.485 365.723C456.485 366.104 456.176 366.413 455.796 366.413H453.061C452.68 366.413 452.371 366.104 452.371 365.723ZM460.575 365.723C460.575 365.342 460.883 365.034 461.264 365.034H463.999C464.38 365.034 464.688 365.342 464.688 365.723C464.688 366.104 464.38 366.413 463.999 366.413H461.264C460.883 366.413 460.575 366.104 460.575 365.723ZM468.778 365.723C468.778 365.342 469.087 365.034 469.468 365.034H472.202C472.583 365.034 472.892 365.342 472.892 365.723C472.892 366.104 472.583 366.413 472.202 366.413H469.468C469.087 366.413 468.778 366.104 468.778 365.723ZM476.981 365.723C476.981 365.342 477.29 365.034 477.671 365.034H480.405C480.786 365.034 481.095 365.342 481.095 365.723C481.095 366.104 480.786 366.413 480.405 366.413H477.671C477.29 366.413 476.981 366.104 476.981 365.723Z" fill="#FE5000"/>
<g filter="url(#filter0_d)">
<circle cx="609.31" cy="228.483" r="69.6552" fill="white"/>
</g>
<g filter="url(#filter1_d)">
<circle cx="452.069" cy="83.6552" r="69.6552" fill="white"/>
</g>
<g filter="url(#filter2_d)">
<circle cx="370.689" cy="354.001" r="69.6552" fill="white"/>
</g>
<g filter="url(#filter3_d)">
<ellipse cx="203.793" cy="198.827" rx="69.6552" ry="70.3448" fill="white"/>
</g>
<path d="M597.617 206.961C595.391 206.961 593.282 207.201 591.173 207.622C589.708 191.109 576.176 178.139 559.655 178.139C543.135 178.139 529.544 191.109 528.079 207.622C526.029 207.201 523.861 206.961 521.635 206.961C504.177 206.961 490 221.492 490 239.446C490 257.4 504.177 271.932 521.693 271.932H597.617C615.133 271.932 629.31 257.4 629.31 239.446C629.31 221.492 615.133 206.961 597.617 206.961Z" fill="#FE7800"/>
<path d="M198.682 172.477C196.434 172.477 194.304 172.717 192.175 173.137C190.695 156.624 177.029 143.654 160.345 143.654C143.661 143.654 129.935 156.624 128.456 173.137C126.385 172.717 124.196 172.477 121.948 172.477C104.317 172.477 90 187.008 90 204.962C90 222.916 104.317 237.447 122.007 237.447H198.682C216.372 237.447 230.69 222.916 230.69 204.962C230.69 187.008 216.372 172.477 198.682 172.477Z" fill="#FEB804"/>
<path d="M442.82 57.0393C440.572 57.0393 438.442 57.283 436.312 57.7095C434.833 40.9538 421.166 27.793 404.483 27.793C387.799 27.793 374.073 40.9538 372.594 57.7095C370.523 57.283 368.334 57.0393 366.086 57.0393C348.455 57.0393 334.138 71.7843 334.138 90.0023C334.138 108.22 348.455 122.965 366.145 122.965H442.82C460.51 122.965 474.827 108.22 474.827 90.0023C474.827 71.7843 460.51 57.0393 442.82 57.0393Z" fill="#662E9C"/>
<path d="M451.097 334.281C448.848 334.281 446.718 334.525 444.589 334.952C443.11 318.196 429.443 305.035 412.759 305.035C396.075 305.035 382.349 318.196 380.87 334.952C378.799 334.525 376.61 334.281 374.362 334.281C356.732 334.281 342.414 349.027 342.414 367.245C342.414 385.463 356.732 400.208 374.421 400.208H451.097C468.786 400.208 483.104 385.463 483.104 367.245C483.104 349.027 468.786 334.281 451.097 334.281Z" fill="#00B89E"/>
<defs>
<filter id="filter0_d" x="532.655" y="144.828" width="179.31" height="179.31" filterUnits="userSpaceOnUse" color-interpolation-filters="sRGB">
<feFlood flood-opacity="0" result="BackgroundImageFix"/>
<feColorMatrix in="SourceAlpha" type="matrix" values="0 0 0 0 0 0 0 0 0 0 0 0 0 0 0 0 0 0 127 0"/>
<feOffset dx="13" dy="6"/>
<feGaussianBlur stdDeviation="10"/>
<feColorMatrix type="matrix" values="0 0 0 0 0 0 0 0 0 0 0 0 0 0 0 0 0 0 0.25 0"/>
<feBlend mode="normal" in2="BackgroundImageFix" result="effect1_dropShadow"/>
<feBlend mode="normal" in="SourceGraphic" in2="effect1_dropShadow" result="shape"/>
</filter>
<filter id="filter1_d" x="375.414" y="0" width="179.31" height="179.31" filterUnits="userSpaceOnUse" color-interpolation-filters="sRGB">
<feFlood flood-opacity="0" result="BackgroundImageFix"/>
<feColorMatrix in="SourceAlpha" type="matrix" values="0 0 0 0 0 0 0 0 0 0 0 0 0 0 0 0 0 0 127 0"/>
<feOffset dx="13" dy="6"/>
<feGaussianBlur stdDeviation="10"/>
<feColorMatrix type="matrix" values="0 0 0 0 0 0 0 0 0 0 0 0 0 0 0 0 0 0 0.25 0"/>
<feBlend mode="normal" in2="BackgroundImageFix" result="effect1_dropShadow"/>
<feBlend mode="normal" in="SourceGraphic" in2="effect1_dropShadow" result="shape"/>
</filter>
<filter id="filter2_d" x="294.034" y="270.346" width="179.31" height="179.31" filterUnits="userSpaceOnUse" color-interpolation-filters="sRGB">
<feFlood flood-opacity="0" result="BackgroundImageFix"/>
<feColorMatrix in="SourceAlpha" type="matrix" values="0 0 0 0 0 0 0 0 0 0 0 0 0 0 0 0 0 0 127 0"/>
<feOffset dx="13" dy="6"/>
<feGaussianBlur stdDeviation="10"/>
<feColorMatrix type="matrix" values="0 0 0 0 0 0 0 0 0 0 0 0 0 0 0 0 0 0 0.25 0"/>
<feBlend mode="normal" in2="BackgroundImageFix" result="effect1_dropShadow"/>
<feBlend mode="normal" in="SourceGraphic" in2="effect1_dropShadow" result="shape"/>
</filter>
<filter id="filter3_d" x="127.138" y="114.482" width="179.31" height="180.69" filterUnits="userSpaceOnUse" color-interpolation-filters="sRGB">
<feFlood flood-opacity="0" result="BackgroundImageFix"/>
<feColorMatrix in="SourceAlpha" type="matrix" values="0 0 0 0 0 0 0 0 0 0 0 0 0 0 0 0 0 0 127 0"/>
<feOffset dx="13" dy="6"/>
<feGaussianBlur stdDeviation="10"/>
<feColorMatrix type="matrix" values="0 0 0 0 0 0 0 0 0 0 0 0 0 0 0 0 0 0 0.25 0"/>
<feBlend mode="normal" in2="BackgroundImageFix" result="effect1_dropShadow"/>
<feBlend mode="normal" in="SourceGraphic" in2="effect1_dropShadow" result="shape"/>
</filter>
</defs>
</svg>
