<svg width="950" height="700" viewBox="0 0 950 700" fill="none" xmlns="http://www.w3.org/2000/svg">
<g clip-path="url(#clip0_1416_32)">
<path d="M452.978 142H247.979C243.868 142 239.925 140.367 237.018 137.46C234.112 134.553 232.479 130.611 232.479 126.5C232.479 122.389 234.112 118.447 237.018 115.54C239.925 112.633 243.868 111 247.979 111H452.978C457.089 111 461.032 112.633 463.939 115.54C466.846 118.447 468.478 122.389 468.478 126.5C468.478 130.611 466.846 134.553 463.939 137.46C461.032 140.367 457.089 142 452.978 142V142Z" fill="#8F8F8F"/>
<path d="M632.549 166.786H68.4084C67.7648 166.771 67.1524 166.506 66.7022 166.046C66.2521 165.585 66 164.967 66 164.323C66 163.68 66.2521 163.062 66.7022 162.601C67.1524 162.141 67.7648 161.876 68.4084 161.861H632.549C633.192 161.876 633.805 162.141 634.255 162.601C634.705 163.062 634.957 163.68 634.957 164.323C634.957 164.967 634.705 165.585 634.255 166.046C633.805 166.506 633.192 166.771 632.549 166.786V166.786Z" fill="#E6E6E6"/>
<path d="M96.5816 135.29C101.252 135.29 105.038 131.42 105.038 126.645C105.038 121.871 101.252 118 96.5816 118C91.9112 118 88.125 121.871 88.125 126.645C88.125 131.42 91.9112 135.29 96.5816 135.29Z" fill="black"/>
<path d="M125.795 135.29C130.466 135.29 134.252 131.42 134.252 126.645C134.252 121.871 130.466 118 125.795 118C121.125 118 117.339 121.871 117.339 126.645C117.339 131.42 121.125 135.29 125.795 135.29Z" fill="black"/>
<path d="M155.009 135.29C159.68 135.29 163.466 131.42 163.466 126.645C163.466 121.871 159.68 118 155.009 118C150.339 118 146.553 121.871 146.553 126.645C146.553 131.42 150.339 135.29 155.009 135.29Z" fill="black"/>
<path d="M188.32 133.478C188.187 133.478 188.055 133.452 187.933 133.4C187.81 133.348 187.699 133.272 187.606 133.177L181.9 127.344C181.717 127.157 181.614 126.906 181.614 126.645C181.614 126.383 181.717 126.132 181.9 125.946L187.606 120.113C187.792 119.926 188.044 119.821 188.308 119.819C188.571 119.817 188.825 119.92 189.013 120.104C189.202 120.289 189.31 120.54 189.314 120.803C189.318 121.067 189.218 121.321 189.035 121.512L184.013 126.645L189.035 131.779C189.173 131.919 189.266 132.098 189.303 132.291C189.34 132.484 189.318 132.684 189.242 132.866C189.166 133.047 189.038 133.202 188.874 133.311C188.71 133.42 188.517 133.478 188.32 133.478V133.478Z" fill="black"/>
<path d="M197.909 133.478C197.712 133.478 197.52 133.42 197.356 133.311C197.192 133.202 197.064 133.047 196.987 132.866C196.911 132.684 196.89 132.484 196.927 132.291C196.964 132.098 197.057 131.919 197.194 131.779L202.216 126.645L197.194 121.512C197.012 121.321 196.912 121.067 196.916 120.803C196.92 120.54 197.028 120.289 197.216 120.104C197.405 119.92 197.658 119.817 197.922 119.819C198.186 119.821 198.438 119.926 198.624 120.113L204.33 125.946C204.512 126.132 204.615 126.383 204.615 126.645C204.615 126.906 204.512 127.157 204.33 127.344L198.624 133.177C198.531 133.272 198.42 133.348 198.297 133.4C198.174 133.452 198.042 133.478 197.909 133.478V133.478Z" fill="#E6E6E6"/>
<path d="M573.807 119C573.226 119.001 572.668 119.232 572.257 119.643C571.846 120.054 571.615 120.611 571.614 121.193V131.807C571.615 132.388 571.846 132.946 572.257 133.357C572.668 133.768 573.226 133.999 573.807 134H584.421C585.003 133.999 585.56 133.768 585.971 133.357C586.382 132.946 586.614 132.388 586.614 131.807V121.193C586.614 120.611 586.382 120.054 585.971 119.643C585.56 119.232 585.003 119.001 584.421 119H573.807Z" fill="#E6E6E6"/>
<path d="M547.807 119C547.226 119.001 546.668 119.232 546.257 119.643C545.846 120.054 545.615 120.611 545.614 121.193V131.807C545.615 132.388 545.846 132.946 546.257 133.357C546.668 133.768 547.226 133.999 547.807 134H558.421C559.003 133.999 559.56 133.768 559.971 133.357C560.382 132.946 560.614 132.388 560.614 131.807V121.193C560.614 120.611 560.382 120.054 559.971 119.643C559.56 119.232 559.003 119.001 558.421 119H547.807Z" fill="#E6E6E6"/>
<path d="M598.307 119.5C597.726 119.501 597.168 119.732 596.757 120.143C596.346 120.554 596.115 121.111 596.114 121.693V132.307C596.115 132.888 596.346 133.446 596.757 133.857C597.168 134.268 597.726 134.499 598.307 134.5H608.921C609.503 134.499 610.06 134.268 610.471 133.857C610.882 133.446 611.114 132.888 611.114 132.307V121.693C611.114 121.111 610.882 120.554 610.471 120.143C610.06 119.732 609.503 119.501 608.921 119.5H598.307Z" fill="#E6E6E6"/>
<path d="M476.979 344H223.979C217.881 343.993 212.034 341.568 207.723 337.256C203.411 332.944 200.985 327.098 200.979 321V227C200.985 220.902 203.411 215.056 207.723 210.744C212.035 206.432 217.881 204.007 223.979 204H476.979C483.076 204.007 488.922 206.432 493.234 210.744C497.546 215.056 499.972 220.902 499.979 227V321C499.972 327.098 497.546 332.944 493.234 337.256C488.923 341.568 483.076 343.993 476.979 344V344Z" fill="#F2F2F2"/>
<path d="M338.925 128.884H254.116C253.407 128.884 252.728 128.602 252.227 128.101C251.726 127.6 251.444 126.921 251.444 126.213C251.444 125.504 251.726 124.825 252.227 124.324C252.728 123.823 253.407 123.541 254.116 123.541H338.925C339.634 123.541 340.313 123.823 340.814 124.324C341.315 124.825 341.596 125.504 341.596 126.213C341.596 126.921 341.315 127.6 340.814 128.101C340.313 128.602 339.634 128.884 338.925 128.884V128.884Z" fill="white"/>
<path d="M249.783 589.05L249.129 588.808C238.189 584.681 228.279 578.222 220.087 569.879C211.895 561.535 205.619 551.508 201.694 540.494C199.541 534.299 198.177 527.857 197.634 521.321L197.581 520.697L198.197 520.807C205.55 522.127 213.27 522.856 216.71 523.142L197.413 510.373L197.448 509.71C197.595 506.663 198.651 503.73 200.48 501.288C202.308 498.847 204.826 497.009 207.709 496.012C210.619 494.937 213.785 494.759 216.797 495.499C219.81 496.239 222.532 497.865 224.613 500.166C226.531 502.248 228.559 504.344 230.52 506.371C237.26 513.337 244.229 520.539 248.636 529.042C251.908 535.511 253.694 542.629 253.864 549.877C254.033 557.124 252.582 564.318 249.615 570.933L249.783 589.05Z" fill="#F2F2F2"/>
<path d="M554.541 587.304L164.815 587.612C164.659 587.612 164.503 587.582 164.358 587.522C164.214 587.463 164.082 587.375 163.971 587.264C163.86 587.154 163.772 587.022 163.712 586.878C163.652 586.733 163.621 586.578 163.621 586.421C163.621 586.264 163.652 586.109 163.712 585.965C163.772 585.82 163.86 585.689 163.971 585.578C164.082 585.467 164.214 585.38 164.358 585.32C164.503 585.26 164.659 585.23 164.815 585.23L554.541 584.923C554.698 584.923 554.853 584.953 554.998 585.013C555.142 585.072 555.274 585.16 555.385 585.271C555.496 585.381 555.584 585.513 555.644 585.657C555.704 585.802 555.735 585.957 555.735 586.114C555.735 586.27 555.704 586.426 555.644 586.57C555.584 586.715 555.496 586.846 555.385 586.957C555.274 587.068 555.142 587.155 554.998 587.215C554.853 587.274 554.698 587.305 554.541 587.304V587.304Z" fill="#CACACA"/>
<path d="M471.402 295.147L467.36 232.538C467.181 229.886 465.967 227.411 463.979 225.646C461.991 223.882 459.389 222.97 456.734 223.107V223.107C455.361 223.178 454.016 223.528 452.783 224.135C451.549 224.743 450.452 225.595 449.559 226.64C448.665 227.686 447.994 228.902 447.586 230.215C447.178 231.528 447.042 232.911 447.185 234.278L453.377 299.186L455.477 338.784C453.845 339.578 452.498 340.855 451.617 342.441C450.736 344.028 450.365 345.847 450.554 347.652C450.743 349.456 451.483 351.159 452.673 352.529C453.864 353.898 455.447 354.868 457.208 355.306C458.969 355.745 460.822 355.63 462.515 354.979C464.209 354.327 465.661 353.17 466.674 351.665C467.687 350.159 468.212 348.379 468.178 346.564C468.144 344.75 467.552 342.99 466.483 341.524L471.402 295.147Z" fill="#A0616A"/>
<path d="M473.938 244.924C474.38 244.442 474.651 243.828 474.71 243.177C474.769 242.526 474.613 241.873 474.265 241.319C473.849 240.628 473.659 239.824 473.722 239.019C473.736 238.864 473.76 238.71 473.794 238.557C474.023 237.645 474.028 236.691 473.808 235.777C473.589 234.862 473.152 234.014 472.535 233.304C470.47 230.998 469.385 227.434 468.856 224.24C468.277 220.746 467.878 217.167 466.48 213.913C464.462 209.218 459.897 205.134 453.949 207.382C451.433 208.377 449.338 210.209 448.016 212.568C445.185 217.465 445.361 223.256 445.583 228.795L444.424 226.645C444.771 232.69 443.894 238.743 441.845 244.44C443.178 244.132 444.192 245.901 443.805 247.213C443.417 248.525 442.249 249.421 441.254 250.359C440 251.543 438.838 253.276 440.116 254.969C440.433 255.366 440.828 255.692 441.278 255.928C441.727 256.165 442.22 256.306 442.726 256.342C452.279 257.236 461.914 256.144 471.025 253.136C473.048 252.467 475.21 251.561 476.207 249.678C477.205 247.795 476.066 244.818 473.938 244.924Z" fill="#8F8F8F"/>
<path d="M403.213 564.245H392.176L386.923 521.671H403.214L403.213 564.245Z" fill="#A0616A"/>
<path d="M409.039 583.369H401.124L399.711 575.895L396.092 583.369H375.098C374.092 583.369 373.112 583.047 372.301 582.451C371.491 581.854 370.892 581.014 370.593 580.054C370.293 579.093 370.309 578.062 370.637 577.11C370.965 576.159 371.589 575.338 372.417 574.766L389.182 563.187V555.632L406.816 556.685L409.039 583.369Z" fill="black"/>
<path d="M462.555 554.524L452.275 558.542L431.884 520.802L447.056 514.871L462.555 554.524Z" fill="#A0616A"/>
<path d="M474.943 570.215L467.571 573.096L463.534 566.65L462.884 574.928L443.331 582.571C442.394 582.937 441.364 582.994 440.392 582.734C439.42 582.474 438.556 581.91 437.928 581.124C437.299 580.338 436.938 579.372 436.897 578.366C436.857 577.361 437.138 576.369 437.702 575.535L449.101 558.647L446.351 551.611L463.158 546.171L474.943 570.215Z" fill="black"/>
<path d="M455.614 289H404.118C404.118 289 384.726 427.496 384.67 427.748C384.614 428 395.614 432 390.614 437L385.614 442C381.614 446 388.583 459.668 388.583 459.668L380.614 541H413.528L429.614 373L407.852 453.542L436.205 541L456.614 529L460.614 518L452.668 510.054C452.668 510.054 450.614 498.11 450.614 491.055C450.614 484 456.614 490 450.614 484C448.019 481.404 440.71 449.552 440.71 449.552L464.614 373L470.31 338.828C471.775 330.02 470.457 320.974 466.539 312.95C463.372 306.455 459.382 297.949 455.614 289Z" fill="black"/>
<path d="M458.614 204L455.192 193.733C454.43 191.449 453.004 189.444 451.095 187.976C449.186 186.508 446.882 185.644 444.479 185.495L441.438 185.306C438.733 185.138 436.049 185.884 433.82 187.425C431.59 188.966 429.943 191.212 429.144 193.802V193.802C428.443 196.094 427.074 198.124 425.213 199.633C423.351 201.141 421.082 202.06 418.695 202.271C409.807 203.028 396.614 205.716 396.614 215C396.614 229 411.614 266 408.614 269C405.614 272 398.614 284.362 402.614 288C403.656 288.948 402.816 293.506 402.482 296.771C401.878 302.685 443.614 289.611 455.614 293C467.614 296.389 461.614 271 463.614 269C465.491 266.711 467.165 264.263 468.615 261.683C469.324 260.495 469.823 259.194 470.09 257.837L473.534 240.405C473.592 240.115 473.638 239.83 473.673 239.537C474.128 235.806 476.792 210.701 466.614 207C455.614 203 458.614 204 458.614 204Z" fill="#8F8F8F"/>
<path d="M343.872 178.81L389.481 221.893C391.419 223.713 393.994 224.697 396.652 224.635C399.309 224.572 401.835 223.467 403.685 221.559V221.559C404.642 220.571 405.388 219.399 405.877 218.114C406.367 216.829 406.589 215.458 406.531 214.084C406.473 212.71 406.136 211.362 405.54 210.123C404.944 208.884 404.102 207.779 403.066 206.875L354.317 163.576L325.805 136.016C326.459 134.324 326.576 132.471 326.14 130.709C325.704 128.948 324.737 127.363 323.369 126.171C322.001 124.978 320.3 124.236 318.495 124.044C316.691 123.852 314.871 124.221 313.283 125.099C311.695 125.978 310.417 127.324 309.62 128.955C308.824 130.585 308.55 132.421 308.833 134.214C309.117 136.006 309.946 137.667 311.207 138.972C312.468 140.277 314.1 141.162 315.881 141.507L343.872 178.81Z" fill="#A0616A"/>
<path d="M376.229 217.305C376.234 217.959 376.453 218.593 376.854 219.11C377.254 219.627 377.813 219.998 378.445 220.167C379.22 220.39 379.907 220.849 380.409 221.481C380.505 221.604 380.592 221.734 380.671 221.869C381.125 222.692 381.771 223.394 382.555 223.914C383.339 224.434 384.236 224.757 385.171 224.856C388.254 225.138 391.477 227.008 394.04 228.986C396.844 231.15 399.573 233.498 402.814 234.928C407.489 236.99 413.613 236.87 416.437 231.173C417.6 228.731 417.887 225.962 417.247 223.334C415.984 217.821 411.91 213.702 407.975 209.798L410.288 210.582C405.916 206.393 402.435 201.364 400.053 195.797C399.288 196.931 397.34 196.327 396.73 195.103C396.119 193.878 396.365 192.427 396.454 191.062C396.566 189.341 396.236 187.281 394.147 186.911C393.645 186.837 393.133 186.867 392.643 187.001C392.153 187.134 391.696 187.367 391.3 187.685C383.698 193.538 377.388 200.9 372.767 209.309C371.742 211.177 370.777 213.313 371.329 215.371C371.881 217.429 374.743 218.833 376.229 217.305Z" fill="#8F8F8F"/>
<path d="M441.614 183C453.765 183 463.614 173.15 463.614 161C463.614 148.85 453.765 139 441.614 139C429.464 139 419.614 148.85 419.614 161C419.614 173.15 429.464 183 441.614 183Z" fill="#A0616A"/>
<path d="M474.954 181.93C473.814 179.62 470.184 179.89 468.334 181.69C466.494 183.49 465.824 186.13 464.784 188.48C463.744 190.84 461.874 193.23 459.304 193.33C456.864 193.42 454.894 191.44 452.614 190.58C450.044 189.61 447.224 190.12 444.624 191.12C444.564 190.87 444.504 190.62 444.424 190.38C444.046 189.09 443.505 187.854 442.814 186.7C442.811 187.977 442.609 189.246 442.214 190.46C441.967 191.229 441.638 191.97 441.234 192.67C438.744 193.93 436.284 195.28 433.544 195.73C430.224 196.29 426.254 195.05 425.004 191.91C424.084 189.59 424.904 186.89 426.304 184.8C427.704 182.72 429.624 181.05 431.194 179.1C432.732 177.28 433.885 175.168 434.584 172.891C435.284 170.614 435.515 168.219 435.264 165.85C434.987 163.773 434.221 161.792 433.028 160.069C431.835 158.346 430.251 156.931 428.404 155.94C426.47 156.638 424.464 157.121 422.424 157.38C422.046 156.09 421.505 154.854 420.814 153.7C420.811 154.977 420.609 156.246 420.214 157.46C418.311 157.432 416.483 156.71 415.074 155.43C412.074 152.59 412.354 147.63 414.074 143.87C415.382 141.022 417.347 138.525 419.808 136.585C422.27 134.645 425.156 133.317 428.231 132.711C431.306 132.104 434.48 132.237 437.494 133.097C440.507 133.958 443.273 135.522 445.564 137.66C448.854 133.36 455.454 132.68 460.354 135C465.244 137.33 468.644 141.97 471.054 146.82C476.429 157.704 477.81 170.131 474.954 181.93V181.93Z" fill="black"/>
</g>
<defs>
<clipPath id="clip0_1416_32">
<rect width="568.957" height="478.05" fill="white" transform="translate(66 111)"/>
</clipPath>
</defs>
</svg>
